<svg width="122" height="16" viewBox="0 0 122 16" fill="none" xmlns="http://www.w3.org/2000/svg">
    <path d="M3.10298 3.6915V9.74555H6.20596C6.63122 9.74555 7.03125 9.66821 7.40606 9.51351C7.78087 9.35179 8.10883 9.13382 8.38993 8.85959C8.67104 8.58537 8.89088 8.26544 9.04945 7.8998C9.21523 7.52714 9.29812 7.13338 9.29812 6.71852C9.29812 6.30367 9.21523 5.91343 9.04945 5.54779C8.89088 5.17513 8.67104 4.85168 8.38993 4.57746C8.10883 4.30323 7.78087 4.08877 7.40606 3.93408C7.03125 3.77236 6.63122 3.6915 6.20596 3.6915H3.10298ZM3.10298 15.7891H0V0.664469H6.20596C6.77538 0.664469 7.32317 0.738299 7.84934 0.885959C8.37552 1.02659 8.86565 1.2305 9.31975 1.49769C9.78105 1.75786 10.1991 2.07427 10.5739 2.44693C10.9559 2.81257 11.2803 3.22039 11.547 3.6704C11.8209 4.12041 12.0299 4.60207 12.1741 5.11536C12.3254 5.62865 12.4011 6.16304 12.4011 6.71852C12.4011 7.54823 12.2389 8.33224 11.9146 9.07053C11.5902 9.8018 11.1469 10.4417 10.5847 10.9901C10.0225 11.5386 9.36299 11.971 8.60617 12.2874C7.85655 12.6038 7.05648 12.762 6.20596 12.762H3.10298V15.7891Z" fill="white" />
    <path d="M16.8664 15.7891H13.9147V0H16.8664V4.98879C17.2195 4.72863 17.5835 4.54581 17.9583 4.44034C18.3332 4.32784 18.7152 4.27159 19.1044 4.27159C19.818 4.27159 20.4883 4.40519 21.1154 4.67238C21.7425 4.93254 22.2867 5.29466 22.748 5.75873C23.2165 6.21578 23.5841 6.75368 23.8508 7.37245C24.1247 7.98418 24.2616 8.6381 24.2616 9.33421V15.7891H21.2884V9.33421H21.31C21.31 9.03889 21.2523 8.76115 21.137 8.50099C21.0217 8.2338 20.8631 8.00176 20.6613 7.80488C20.4595 7.608 20.2252 7.45331 19.9585 7.3408C19.6918 7.2283 19.4071 7.17205 19.1044 7.17205C18.7945 7.17205 18.5025 7.2283 18.2286 7.3408C17.9547 7.45331 17.7169 7.608 17.5151 7.80488C17.3132 8.00176 17.1547 8.2338 17.0393 8.50099C16.924 8.76115 16.8664 9.03889 16.8664 9.33421V15.7891Z" fill="white" />
    <path d="M37.5601 10.0409C37.5601 10.8846 37.4051 11.6722 37.0952 12.4034C36.7852 13.1277 36.3636 13.757 35.8302 14.2914C35.2968 14.8187 34.6697 15.2371 33.949 15.5465C33.2354 15.8488 32.4677 16 31.646 16C30.8316 16 30.0639 15.8488 29.3431 15.5465C28.6296 15.2371 28.0025 14.8187 27.4619 14.2914C26.9285 13.757 26.5069 13.1277 26.1969 12.4034C25.887 11.6722 25.732 10.8846 25.732 10.0409C25.732 9.18304 25.887 8.38849 26.1969 7.65722C26.5069 6.92595 26.9285 6.29664 27.4619 5.76928C28.0025 5.23489 28.6296 4.81652 29.3431 4.51417C30.0639 4.21182 30.8316 4.06065 31.646 4.06065C32.4677 4.06065 33.2354 4.20479 33.949 4.49308C34.6697 4.77434 35.2968 5.17864 35.8302 5.706C36.3636 6.22632 36.7852 6.85564 37.0952 7.59394C37.4051 8.3252 37.5601 9.14085 37.5601 10.0409ZM34.5868 10.0409C34.5868 9.5768 34.5076 9.15843 34.349 8.78576C34.1976 8.40606 33.9886 8.08262 33.7219 7.81543C33.4552 7.5412 33.1417 7.33377 32.7813 7.19314C32.4281 7.04548 32.0497 6.97165 31.646 6.97165C31.2424 6.97165 30.8604 7.04548 30.5 7.19314C30.1468 7.33377 29.8369 7.5412 29.5702 7.81543C29.3107 8.08262 29.1053 8.40606 28.9539 8.78576C28.8026 9.15843 28.7269 9.5768 28.7269 10.0409C28.7269 10.4768 28.8026 10.8811 28.9539 11.2538C29.1053 11.6265 29.3107 11.9499 29.5702 12.2241C29.8369 12.4984 30.1468 12.7163 30.5 12.878C30.8604 13.0327 31.2424 13.1101 31.646 13.1101C32.0497 13.1101 32.4281 13.0363 32.7813 12.8886C33.1417 12.7409 33.4552 12.5335 33.7219 12.2663C33.9886 11.9991 34.1976 11.6757 34.349 11.296C34.5076 10.9163 34.5868 10.4979 34.5868 10.0409Z" fill="white" />
    <path d="M44.9121 15.7891C44.1985 15.7891 43.5282 15.659 42.9011 15.3988C42.274 15.1316 41.7226 14.7695 41.2469 14.3125C40.7784 13.8484 40.4072 13.3105 40.1333 12.6987C39.8666 12.087 39.7332 11.4331 39.7332 10.737V7.38299H38.2953V4.51417H39.7332V0H42.6741V4.51417H47.1501V7.38299H42.6741V10.737C42.6741 11.0393 42.7317 11.3241 42.847 11.5913C42.9624 11.8515 43.1209 12.08 43.3228 12.2769C43.5246 12.4737 43.7624 12.6319 44.0363 12.7515C44.3102 12.864 44.6021 12.9202 44.9121 12.9202H47.1501V15.7891H44.9121Z" fill="white" />
    <path d="M60.0053 10.0409C60.0053 10.8846 59.8503 11.6722 59.5404 12.4034C59.2305 13.1277 58.8088 13.757 58.2754 14.2914C57.7421 14.8187 57.115 15.2371 56.3942 15.5465C55.6806 15.8488 54.913 16 54.0913 16C53.2768 16 52.5092 15.8488 51.7884 15.5465C51.0748 15.2371 50.4477 14.8187 49.9071 14.2914C49.3737 13.757 48.9521 13.1277 48.6421 12.4034C48.3322 11.6722 48.1772 10.8846 48.1772 10.0409C48.1772 9.18304 48.3322 8.38849 48.6421 7.65722C48.9521 6.92595 49.3737 6.29664 49.9071 5.76928C50.4477 5.23489 51.0748 4.81652 51.7884 4.51417C52.5092 4.21182 53.2768 4.06065 54.0913 4.06065C54.913 4.06065 55.6806 4.20479 56.3942 4.49308C57.115 4.77434 57.7421 5.17864 58.2754 5.706C58.8088 6.22632 59.2305 6.85564 59.5404 7.59394C59.8503 8.3252 60.0053 9.14085 60.0053 10.0409ZM57.0321 10.0409C57.0321 9.5768 56.9528 9.15843 56.7942 8.78576C56.6429 8.40606 56.4338 8.08262 56.1671 7.81543C55.9004 7.5412 55.5869 7.33377 55.2265 7.19314C54.8733 7.04548 54.4949 6.97165 54.0913 6.97165C53.6876 6.97165 53.3056 7.04548 52.9452 7.19314C52.592 7.33377 52.2821 7.5412 52.0154 7.81543C51.7559 8.08262 51.5505 8.40606 51.3992 8.78576C51.2478 9.15843 51.1721 9.5768 51.1721 10.0409C51.1721 10.4768 51.2478 10.8811 51.3992 11.2538C51.5505 11.6265 51.7559 11.9499 52.0154 12.2241C52.2821 12.4984 52.592 12.7163 52.9452 12.878C53.3056 13.0327 53.6876 13.1101 54.0913 13.1101C54.4949 13.1101 54.8733 13.0363 55.2265 12.8886C55.5869 12.7409 55.9004 12.5335 56.1671 12.2663C56.4338 11.9991 56.6429 11.6757 56.7942 11.296C56.9528 10.9163 57.0321 10.4979 57.0321 10.0409Z" fill="white" />
    <path d="M74.3525 11.2538C74.3525 11.8796 74.23 12.4667 73.9849 13.0152C73.7399 13.5636 73.4047 14.0453 72.9794 14.4601C72.5614 14.8679 72.0713 15.1914 71.509 15.4305C70.9468 15.6695 70.345 15.7891 69.7035 15.7891H61.9514V0.664469H69.7035C70.345 0.664469 70.9468 0.784004 71.509 1.02307C72.0713 1.26214 72.5614 1.5891 72.9794 2.00396C73.4047 2.41178 73.7399 2.88991 73.9849 3.43837C74.23 3.98682 74.3525 4.57394 74.3525 5.19974C74.3525 5.48099 74.3129 5.76928 74.2336 6.0646C74.1543 6.35992 74.0426 6.64469 73.8984 6.91892C73.7543 7.19314 73.5813 7.44276 73.3795 7.66777C73.1777 7.89277 72.9542 8.0791 72.7091 8.22676C72.9614 8.36036 73.1885 8.54318 73.3903 8.77521C73.5921 9.00022 73.7651 9.24984 73.9092 9.52406C74.0534 9.79829 74.1615 10.0866 74.2336 10.3889C74.3129 10.6842 74.3525 10.9725 74.3525 11.2538ZM65.0544 12.762H69.7035C69.9197 12.762 70.1215 12.7234 70.3089 12.646C70.4963 12.5687 70.6585 12.4632 70.7955 12.3296C70.9396 12.189 71.0513 12.0272 71.1306 11.8444C71.2099 11.6616 71.2496 11.4647 71.2496 11.2538C71.2496 11.0428 71.2099 10.846 71.1306 10.6632C71.0513 10.4803 70.9396 10.3221 70.7955 10.1885C70.6585 10.0479 70.4963 9.93892 70.3089 9.86157C70.1215 9.78422 69.9197 9.74555 69.7035 9.74555H65.0544V12.762ZM65.0544 6.71852H69.7035C69.9197 6.71852 70.1215 6.67985 70.3089 6.60251C70.4963 6.52516 70.6585 6.41969 70.7955 6.28609C70.9396 6.14546 71.0513 5.98374 71.1306 5.80092C71.2099 5.61107 71.2496 5.41068 71.2496 5.19974C71.2496 4.98879 71.2099 4.79191 71.1306 4.6091C71.0513 4.42628 70.9396 4.26807 70.7955 4.13448C70.6585 3.99385 70.4963 3.88486 70.3089 3.80751C70.1215 3.73017 69.9197 3.6915 69.7035 3.6915H65.0544V6.71852Z" fill="white" />
    <path d="M87.5753 10.0409C87.5753 10.8846 87.4204 11.6722 87.1104 12.4034C86.8005 13.1277 86.3788 13.757 85.8454 14.2914C85.3121 14.8187 84.685 15.2371 83.9642 15.5465C83.2506 15.8488 82.483 16 81.6613 16C80.8468 16 80.0792 15.8488 79.3584 15.5465C78.6448 15.2371 78.0177 14.8187 77.4771 14.2914C76.9438 13.757 76.5221 13.1277 76.2122 12.4034C75.9022 11.6722 75.7473 10.8846 75.7473 10.0409C75.7473 9.18304 75.9022 8.38849 76.2122 7.65722C76.5221 6.92595 76.9438 6.29664 77.4771 5.76928C78.0177 5.23489 78.6448 4.81652 79.3584 4.51417C80.0792 4.21182 80.8468 4.06065 81.6613 4.06065C82.483 4.06065 83.2506 4.20479 83.9642 4.49308C84.685 4.77434 85.3121 5.17864 85.8454 5.706C86.3788 6.22632 86.8005 6.85564 87.1104 7.59394C87.4204 8.3252 87.5753 9.14085 87.5753 10.0409ZM84.6021 10.0409C84.6021 9.5768 84.5228 9.15843 84.3642 8.78576C84.2129 8.40606 84.0038 8.08262 83.7372 7.81543C83.4705 7.5412 83.1569 7.33377 82.7965 7.19314C82.4433 7.04548 82.0649 6.97165 81.6613 6.97165C81.2577 6.97165 80.8756 7.04548 80.5152 7.19314C80.1621 7.33377 79.8521 7.5412 79.5854 7.81543C79.326 8.08262 79.1205 8.40606 78.9692 8.78576C78.8178 9.15843 78.7421 9.5768 78.7421 10.0409C78.7421 10.4768 78.8178 10.8811 78.9692 11.2538C79.1205 11.6265 79.326 11.9499 79.5854 12.2241C79.8521 12.4984 80.1621 12.7163 80.5152 12.878C80.8756 13.0327 81.2577 13.1101 81.6613 13.1101C82.0649 13.1101 82.4433 13.0363 82.7965 12.8886C83.1569 12.7409 83.4705 12.5335 83.7372 12.2663C84.0038 11.9991 84.2129 11.6757 84.3642 11.296C84.5228 10.9163 84.6021 10.4979 84.6021 10.0409Z" fill="white" />
    <path d="M100.398 10.0409C100.398 10.8846 100.243 11.6722 99.9332 12.4034C99.6232 13.1277 99.2016 13.757 98.6682 14.2914C98.1348 14.8187 97.5077 15.2371 96.787 15.5465C96.0734 15.8488 95.3057 16 94.484 16C93.6696 16 92.9019 15.8488 92.1811 15.5465C91.4676 15.2371 90.8405 14.8187 90.2999 14.2914C89.7665 13.757 89.3449 13.1277 89.0349 12.4034C88.725 11.6722 88.57 10.8846 88.57 10.0409C88.57 9.18304 88.725 8.38849 89.0349 7.65722C89.3449 6.92595 89.7665 6.29664 90.2999 5.76928C90.8405 5.23489 91.4676 4.81652 92.1811 4.51417C92.9019 4.21182 93.6696 4.06065 94.484 4.06065C95.3057 4.06065 96.0734 4.20479 96.787 4.49308C97.5077 4.77434 98.1348 5.17864 98.6682 5.706C99.2016 6.22632 99.6232 6.85564 99.9332 7.59394C100.243 8.3252 100.398 9.14085 100.398 10.0409ZM97.4249 10.0409C97.4249 9.5768 97.3456 9.15843 97.187 8.78576C97.0356 8.40606 96.8266 8.08262 96.5599 7.81543C96.2932 7.5412 95.9797 7.33377 95.6193 7.19314C95.2661 7.04548 94.8877 6.97165 94.484 6.97165C94.0804 6.97165 93.6984 7.04548 93.338 7.19314C92.9848 7.33377 92.6749 7.5412 92.4082 7.81543C92.1487 8.08262 91.9433 8.40606 91.7919 8.78576C91.6406 9.15843 91.5649 9.5768 91.5649 10.0409C91.5649 10.4768 91.6406 10.8811 91.7919 11.2538C91.9433 11.6265 92.1487 11.9499 92.4082 12.2241C92.6749 12.4984 92.9848 12.7163 93.338 12.878C93.6984 13.0327 94.0804 13.1101 94.484 13.1101C94.8877 13.1101 95.2661 13.0363 95.6193 12.8886C95.9797 12.7409 96.2932 12.5335 96.5599 12.2663C96.8266 11.9991 97.0356 11.6757 97.187 11.296C97.3456 10.9163 97.4249 10.4979 97.4249 10.0409Z" fill="white" />
    <path d="M107.75 15.7891C107.037 15.7891 106.366 15.659 105.739 15.3988C105.112 15.1316 104.561 14.7695 104.085 14.3125C103.616 13.8484 103.245 13.3105 102.971 12.6987C102.705 12.087 102.571 11.4331 102.571 10.737V7.38299H101.133V4.51417H102.571V0H105.512V4.51417H109.988V7.38299H105.512V10.737C105.512 11.0393 105.57 11.3241 105.685 11.5913C105.8 11.8515 105.959 12.08 106.161 12.2769C106.363 12.4737 106.6 12.6319 106.874 12.7515C107.148 12.864 107.44 12.9202 107.75 12.9202H109.988V15.7891H107.75Z" fill="white" />
    <path d="M114.605 15.7891H111.653V0H114.605V4.98879C114.958 4.72863 115.322 4.54581 115.697 4.44034C116.072 4.32784 116.454 4.27159 116.843 4.27159C117.556 4.27159 118.227 4.40519 118.854 4.67238C119.481 4.93254 120.025 5.29466 120.486 5.75873C120.955 6.21578 121.322 6.75368 121.589 7.37245C121.863 7.98418 122 8.6381 122 9.33421V15.7891H119.027V9.33421H119.048C119.048 9.03889 118.991 8.76115 118.875 8.50099C118.76 8.2338 118.602 8.00176 118.4 7.80488C118.198 7.608 117.964 7.45331 117.697 7.3408C117.43 7.2283 117.146 7.17205 116.843 7.17205C116.533 7.17205 116.241 7.2283 115.967 7.3408C115.693 7.45331 115.455 7.608 115.253 7.80488C115.052 8.00176 114.893 8.2338 114.778 8.50099C114.662 8.76115 114.605 9.03889 114.605 9.33421V15.7891Z" fill="white" />
</svg>
    